<?xml version="1.0" encoding="UTF-8"?>
<svg xmlns="http://www.w3.org/2000/svg" width="624" height="624" viewBox="0 0 624 624">

<path d="M59.8,133.7L60.3,125.4L62.9,117.5L67.3,110.5L73.3,104.9L80.3,101.2L88.0,99.4L403.5,72.9L409.3,73.4L414.7,75.7L419.2,79.7L422.6,85.0L424.7,91.4L425.2,98.4L417.0,404.6L416.2,410.8L414.0,416.9L410.6,422.5L406.2,427.2L401.1,430.8L395.7,432.9L109.5,503.9L102.5,504.7L95.9,503.7L90.1,501.0L85.4,496.6L82.3,490.9L81.0,484.3Z" fill="rgba(126,162,214,0.130)" stroke="rgba(186,222,274,0.500)" stroke-width="1.2"/>
<path d="M176.3,391.2 C155.0,318.3 276.5,422.9 293.0,379.7" fill="none" stroke="rgba(83,115,170,0.600)" stroke-width="2.75"/>
<path d="M124.3,389.1 C87.6,335.4 325.8,368.1 323.0,341.1" fill="none" stroke="rgba(95,110,174,0.600)" stroke-width="2.75"/>
<path d="M243.5,315.1 C263.0,258.9 172.8,424.1 208.5,393.1" fill="none" stroke="rgba(110,103,178,0.600)" stroke-width="2.75"/>
<path d="M208.5,393.1 C200.3,349.2 348.1,376.3 323.0,341.1" fill="none" stroke="rgba(99,108,175,0.600)" stroke-width="2.75"/>
<path d="M214.2,395.9 C240.9,343.0 105.6,369.8 120.3,340.1" fill="none" stroke="rgba(82,116,170,0.600)" stroke-width="2.75"/>
<path d="M243.5,315.1 C209.1,257.5 149.4,364.5 120.3,340.1" fill="none" stroke="rgba(79,117,169,0.600)" stroke-width="2.75"/>
<path d="M208.5,393.1 C227.2,344.5 274.8,423.5 293.0,379.7" fill="none" stroke="rgba(89,113,172,0.600)" stroke-width="2.75"/>
<path d="M362.6,252.1 C382.4,182.0 316.1,364.2 323.0,341.1" fill="none" stroke="rgba(78,117,169,0.600)" stroke-width="2.75"/>
<path d="M323.0,341.1 C357.8,294.6 326.0,393.4 293.0,379.7" fill="none" stroke="rgba(108,104,178,0.600)" stroke-width="2.75"/>
<path d="M323.0,341.1 C318.4,268.5 319.2,291.5 362.6,252.1" fill="none" stroke="rgba(124,97,182,0.600)" stroke-width="2.75"/>
<path d="M223.4,272.4 C260.0,188.4 124.4,419.1 124.3,389.1" fill="none" stroke="rgba(106,105,177,0.600)" stroke-width="2.75"/>
<path d="M90.7,340.9L91.2,337.5L92.8,334.5L95.5,332.1L98.7,330.9L140.4,323.5L143.5,323.6L146.2,324.9L148.1,327.3L148.8,330.4L149.2,339.4L148.7,342.6L147.1,345.6L144.5,347.9L141.5,349.1L100.0,356.9L96.8,356.9L94.0,355.6L92.0,353.2L91.2,350.1Z" fill="rgba(87,104,180,0.850)" stroke="rgba(157,164,240,0.335)" stroke-width="0.9"/>
<path d="M189.4,178.8L189.9,175.5L191.5,172.5L193.9,170.4L196.8,169.4L251.9,163.0L254.7,163.3L257.1,164.8L258.7,167.3L259.3,170.3L259.3,170.3L258.8,173.5L257.2,176.3L254.9,178.4L252.1,179.4L197.3,186.2L194.3,185.9L191.8,184.4L190.1,181.9L189.4,178.8Z" fill="rgba(98,98,178,0.892)" stroke="rgba(168,158,238,0.412)" stroke-width="0.9"/>
<path d="M209.6,317.9L210.1,314.7L211.7,311.8L214.1,309.6L217.0,308.4L269.0,299.3L271.8,299.4L274.2,300.7L275.8,303.0L276.4,305.9L276.4,312.3L275.9,315.4L274.4,318.2L272.0,320.4L269.3,321.5L217.6,331.1L214.6,331.0L212.1,329.8L210.4,327.4L209.8,324.5Z" fill="rgba(96,98,179,0.900)" stroke="rgba(166,158,239,0.426)" stroke-width="0.9"/>
<path d="M294.2,344.5L294.7,341.4L296.2,338.6L298.5,336.5L301.2,335.4L344.5,327.0L347.0,327.0L349.2,328.3L350.6,330.4L351.1,333.2L351.1,337.7L350.5,340.7L349.1,343.4L346.9,345.5L344.3,346.6L301.2,355.4L298.5,355.3L296.3,354.1L294.7,352.0L294.2,349.1Z" fill="rgba(64,117,183,0.867)" stroke="rgba(134,177,243,0.365)" stroke-width="0.9"/>
<circle cx="362.6" cy="252.1" r="3.515" fill="rgba(82,107,180,0.820)"/>
<path d="M93.4,398.4L93.8,395.1L95.5,392.1L98.1,389.7L101.2,388.5L151.9,378.3L155.0,378.3L157.6,379.5L159.4,381.8L160.1,384.8L160.7,400.1L160.3,403.3L158.7,406.2L156.2,408.5L153.2,409.7L102.9,420.5L99.7,420.5L97.0,419.3L95.0,417.1L94.2,414.1Z" fill="rgba(58,121,183,0.798)" stroke="rgba(128,181,243,0.241)" stroke-width="0.9"/>
<circle cx="223.4" cy="272.4" r="3.71" fill="rgba(70,114,182,0.819)"/>
<path d="M104.9,389.1L105.3,385.8L107.0,382.8L109.6,380.5L112.7,379.2L134.7,374.9L137.8,374.9L140.5,376.1L142.3,378.4L143.1,381.4L143.4,389.1L143.0,392.4L141.3,395.3L138.8,397.6L135.8,398.9L113.9,403.4L110.7,403.4L108.0,402.2L106.1,399.9L105.3,396.9Z" fill="rgba(113,88,176,0.865)" stroke="rgba(183,148,236,0.363)" stroke-width="0.9"/>
<path d="M197.9,398.3L198.4,395.2L200.0,392.3L202.4,390.0L205.2,388.8L222.7,385.2L225.6,385.2L228.0,386.4L229.7,388.5L230.3,391.4L230.4,393.5L229.9,396.6L228.3,399.5L226.0,401.7L223.1,402.9L205.7,406.7L202.8,406.7L200.3,405.5L198.6,403.4L198.0,400.5Z" fill="rgba(118,85,176,0.899)" stroke="rgba(188,145,236,0.425)" stroke-width="0.9"/>
<path d="M185.2,395.3L185.7,392.1L187.3,389.2L189.7,387.0L192.6,385.7L223.5,379.3L226.4,379.3L228.8,380.5L230.5,382.7L231.1,385.6L231.2,391.0L230.7,394.0L229.2,396.9L226.8,399.1L224.0,400.3L193.3,406.9L190.3,407.0L187.8,405.8L186.1,403.6L185.4,400.7Z" fill="rgba(61,119,183,0.893)" stroke="rgba(131,179,243,0.413)" stroke-width="0.9"/>
<circle cx="176.3" cy="391.2" r="4.465" fill="rgba(102,95,178,0.851)"/>
<path d="M263.8,379.2L264.3,376.2L265.8,373.3L268.1,371.2L270.9,370.0L314.7,360.9L317.3,361.0L319.5,362.1L321.0,364.3L321.5,367.0L321.5,380.2L321.0,383.2L319.5,385.9L317.3,388.0L314.7,389.1L271.2,398.7L268.4,398.7L266.1,397.6L264.5,395.5L264.0,392.7Z" fill="rgba(73,112,182,0.809)" stroke="rgba(143,172,242,0.260)" stroke-width="0.9"/>
<path d="M104.6,152.9L105.2,144.0L108.0,135.5L112.8,127.9L119.1,121.9L126.6,117.8L134.8,115.9L465.3,85.4L471.4,85.8L476.9,88.2L481.5,92.4L485.0,98.1L487.0,104.9L487.4,112.3L473.9,436.2L472.9,442.7L470.5,449.2L467.0,455.2L462.4,460.2L457.1,464.1L451.5,466.4L153.0,547.0L145.6,548.1L138.7,547.2L132.6,544.4L127.8,539.8L124.6,533.9L123.2,526.9Z" fill="rgba(125,165,209,0.130)" stroke="rgba(185,225,269,0.500)" stroke-width="1.2"/>
<path d="M305.7,252.7 C294.8,204.2 379.1,175.5 402.7,140.3" fill="none" stroke="rgba(85,114,171,0.600)" stroke-width="2.75"/>
<path d="M277.1,316.2 C263.3,246.9 314.2,440.8 297.9,408.5" fill="none" stroke="rgba(78,117,169,0.600)" stroke-width="2.75"/>
<path d="M277.1,316.2 C255.8,246.1 233.5,461.3 209.0,421.0" fill="none" stroke="rgba(105,106,177,0.600)" stroke-width="2.75"/>
<path d="M340.2,219.7 C310.0,146.5 290.1,449.4 297.9,408.5" fill="none" stroke="rgba(75,119,168,0.600)" stroke-width="2.75"/>
<path d="M291.6,282.0 C304.4,209.8 254.9,459.4 230.4,413.1" fill="none" stroke="rgba(105,106,177,0.600)" stroke-width="2.75"/>
<path d="M236.7,440.0 C229.2,366.5 324.6,353.8 277.1,316.2" fill="none" stroke="rgba(78,118,169,0.600)" stroke-width="2.75"/>
<path d="M340.2,219.7 C376.8,130.9 299.5,332.2 291.6,282.0" fill="none" stroke="rgba(111,103,178,0.600)" stroke-width="2.75"/>
<path d="M249.9,341.1 C207.7,274.2 334.7,484.1 345.9,450.3" fill="none" stroke="rgba(127,96,183,0.600)" stroke-width="2.75"/>
<path d="M214.3,198.3 C238.2,132.4 394.5,183.0 402.7,140.3" fill="none" stroke="rgba(77,118,168,0.600)" stroke-width="2.75"/>
<path d="M277.1,316.2 C249.2,263.8 190.4,448.8 230.4,413.1" fill="none" stroke="rgba(126,96,183,0.600)" stroke-width="2.75"/>
<path d="M297.9,408.5 C281.1,326.5 290.7,293.8 305.7,252.7" fill="none" stroke="rgba(93,111,173,0.600)" stroke-width="2.75"/>
<path d="M297.9,408.5 C316.1,319.6 298.7,347.9 303.8,317.2" fill="none" stroke="rgba(92,111,173,0.600)" stroke-width="2.75"/>
<path d="M209.0,421.0 C153.3,343.9 271.4,351.7 303.8,317.2" fill="none" stroke="rgba(87,113,172,0.600)" stroke-width="2.75"/>
<path d="M249.9,341.1 C233.7,288.0 336.3,487.6 345.9,450.3" fill="none" stroke="rgba(92,111,173,0.600)" stroke-width="2.75"/>
<path d="M253.1,315.4L253.7,311.9L255.4,308.7L258.0,306.3L261.1,305.1L292.7,299.5L295.7,299.6L298.3,301.0L300.0,303.5L300.6,306.7L300.6,317.0L300.0,320.4L298.3,323.5L295.8,325.8L292.8,327.0L261.5,333.0L258.4,332.9L255.8,331.5L254.0,329.0L253.3,325.8Z" fill="rgba(82,107,180,0.850)" stroke="rgba(152,167,240,0.335)" stroke-width="0.9"/>
<path d="M224.3,339.1L224.9,335.6L226.6,332.4L229.3,330.0L232.4,328.7L266.7,322.3L269.8,322.4L272.4,323.8L274.2,326.3L274.8,329.5L274.9,343.0L274.3,346.4L272.7,349.5L270.1,351.9L267.1,353.1L233.0,359.9L229.9,359.9L227.2,358.5L225.3,356.1L224.6,352.8Z" fill="rgba(93,100,179,0.892)" stroke="rgba(163,160,239,0.412)" stroke-width="0.9"/>
<path d="M312.3,266.9L312.8,264.0L314.3,261.3L316.5,259.3L319.0,258.3L343.9,254.2L346.4,254.4L348.5,255.7L349.9,257.9L350.3,260.6L350.3,260.6L349.8,263.6L348.4,266.2L346.2,268.2L343.7,269.2L319.0,273.4L316.5,273.2L314.3,272.0L312.8,269.7L312.3,266.9Z" fill="rgba(93,100,179,0.900)" stroke="rgba(163,160,239,0.426)" stroke-width="0.9"/>
<circle cx="402.7" cy="140.3" r="5.09" fill="rgba(83,106,180,0.867)"/>
<path d="M251.4,279.5L251.9,275.9L253.7,272.7L256.3,270.4L259.4,269.2L322.6,258.9L325.6,259.0L328.1,260.5L329.8,263.1L330.3,266.3L330.2,284.4L329.6,287.8L328.0,290.9L325.5,293.2L322.6,294.4L259.9,305.6L256.8,305.4L254.1,304.0L252.3,301.4L251.6,298.2Z" fill="rgba(59,120,183,0.820)" stroke="rgba(129,180,243,0.281)" stroke-width="0.9"/>
<path d="M285.0,249.0L285.6,245.4L287.3,242.3L289.9,239.9L293.0,238.8L318.2,234.9L321.2,235.1L323.7,236.7L325.4,239.3L326.0,242.6L325.9,256.3L325.3,259.7L323.6,262.8L321.1,265.1L318.2,266.3L293.1,270.4L290.1,270.3L287.5,268.8L285.7,266.2L285.1,262.9Z" fill="rgba(63,118,183,0.798)" stroke="rgba(133,178,243,0.241)" stroke-width="0.9"/>
<circle cx="236.7" cy="440.0" r="3.905" fill="rgba(115,87,176,0.819)"/>
<path d="M278.0,407.4L278.6,404.0L280.2,401.0L282.8,398.6L285.7,397.3L309.9,392.0L312.8,392.0L315.2,393.2L316.8,395.5L317.4,398.5L317.4,409.6L316.8,412.8L315.2,415.9L312.8,418.2L309.9,419.5L285.9,425.0L282.9,425.1L280.4,423.9L278.7,421.6L278.1,418.6Z" fill="rgba(112,89,176,0.865)" stroke="rgba(182,149,236,0.363)" stroke-width="0.9"/>
<path d="M178.5,197.8L179.1,194.0L180.9,190.6L183.7,188.2L187.1,187.0L240.3,180.4L243.5,180.8L246.3,182.4L248.2,185.3L248.9,188.8L249.0,198.9L248.5,202.5L246.7,205.8L244.0,208.2L240.8,209.3L188.0,216.5L184.6,216.3L181.7,214.6L179.6,211.8L178.8,208.2Z" fill="rgba(103,95,178,0.899)" stroke="rgba(173,155,238,0.425)" stroke-width="0.9"/>
<circle cx="303.8" cy="317.2" r="5.78" fill="rgba(61,120,183,0.893)"/>
<circle cx="230.4" cy="413.1" r="4.78" fill="rgba(96,99,179,0.851)"/>
<path d="M300.8,225.3L301.4,221.8L303.2,218.6L305.7,216.3L308.8,215.2L370.9,206.3L373.7,206.6L376.1,208.1L377.7,210.7L378.2,214.0L378.2,214.3L377.6,217.7L375.9,220.8L373.5,223.1L370.6,224.1L308.8,233.5L305.8,233.3L303.2,231.7L301.5,229.1L300.8,225.7Z" fill="rgba(74,112,181,0.809)" stroke="rgba(144,172,241,0.260)" stroke-width="0.9"/>
<path d="M168.9,421.3L169.5,417.9L171.2,414.6L173.9,412.2L177.2,410.8L239.2,397.4L242.3,397.4L244.9,398.6L246.7,401.0L247.4,404.1L247.6,420.6L247.1,424.0L245.4,427.1L242.8,429.5L239.8,430.8L178.3,445.0L175.1,445.1L172.3,443.9L170.3,441.5L169.6,438.4Z" fill="rgba(104,94,177,0.801)" stroke="rgba(174,154,237,0.245)" stroke-width="0.9"/>
<path d="M319.2,453.6L319.7,450.4L321.4,447.5L323.8,445.2L326.6,443.9L365.0,434.4L367.7,434.4L370.0,435.5L371.5,437.6L372.0,440.5L371.9,447.1L371.3,450.2L369.7,453.1L367.4,455.3L364.7,456.6L326.5,466.4L323.7,466.5L321.3,465.4L319.7,463.2L319.2,460.3Z" fill="rgba(115,87,176,0.833)" stroke="rgba(185,147,236,0.303)" stroke-width="0.9"/>
<path d="M157.0,175.4L157.8,165.8L160.9,156.6L166.0,148.3L172.8,141.7L180.8,137.2L189.5,135.1L536.2,99.6L542.4,100.0L548.1,102.6L552.8,107.0L556.2,113.1L558.1,120.3L558.5,128.2L538.2,471.9L537.1,478.9L534.5,485.7L530.7,492.1L525.9,497.5L520.5,501.7L514.6,504.3L203.0,596.7L195.3,598.0L188.0,597.2L181.7,594.4L176.6,589.7L173.3,583.4L172.0,576.0Z" fill="rgba(125,168,204,0.130)" stroke="rgba(185,228,264,0.500)" stroke-width="1.2"/>
<path d="M497.4,286.1 C497.8,210.0 321.1,466.4 342.2,412.4" fill="none" stroke="rgba(89,112,172,0.600)" stroke-width="2.75"/>
<path d="M245.1,318.9 C250.8,263.4 430.8,461.7 474.6,421.3" fill="none" stroke="rgba(109,104,178,0.600)" stroke-width="2.75"/>
<path d="M221.5,217.4 C274.1,153.4 376.0,314.8 409.2,284.4" fill="none" stroke="rgba(111,103,179,0.600)" stroke-width="2.75"/>
<path d="M245.1,318.9 C241.1,251.1 325.2,544.2 367.8,500.7" fill="none" stroke="rgba(120,99,181,0.600)" stroke-width="2.75"/>
<path d="M390.4,183.1 C347.6,110.0 485.1,510.7 458.3,477.0" fill="none" stroke="rgba(99,108,175,0.600)" stroke-width="2.75"/>
<path d="M245.1,318.9 C248.8,217.9 319.2,547.1 367.8,500.7" fill="none" stroke="rgba(93,111,173,0.600)" stroke-width="2.75"/>
<path d="M474.6,421.3 C488.7,367.7 435.1,296.6 428.7,241.5" fill="none" stroke="rgba(82,116,170,0.600)" stroke-width="2.75"/>
<path d="M221.5,217.4 C279.4,109.3 262.5,360.0 270.5,326.8" fill="none" stroke="rgba(108,104,178,0.600)" stroke-width="2.75"/>
<path d="M390.4,183.1 C407.4,126.5 261.4,356.6 245.1,318.9" fill="none" stroke="rgba(80,117,169,0.600)" stroke-width="2.75"/>
<path d="M390.4,183.1 C370.9,103.5 165.8,264.9 221.5,217.4" fill="none" stroke="rgba(89,113,172,0.600)" stroke-width="2.75"/>
<path d="M456.6,234.1 C455.2,165.6 395.7,284.3 428.7,241.5" fill="none" stroke="rgba(85,114,171,0.600)" stroke-width="2.75"/>
<path d="M270.5,326.8 C260.3,264.0 433.1,281.4 428.7,241.5" fill="none" stroke="rgba(114,101,180,0.600)" stroke-width="2.75"/>
<path d="M474.6,421.3 C444.4,371.5 349.5,540.7 367.8,500.7" fill="none" stroke="rgba(102,107,176,0.600)" stroke-width="2.75"/>
<path d="M428.7,241.5 C428.9,154.3 275.7,253.5 221.5,217.4" fill="none" stroke="rgba(119,99,181,0.600)" stroke-width="2.75"/>
<path d="M497.4,286.1 C483.1,218.3 468.4,396.0 429.1,364.7" fill="none" stroke="rgba(93,111,173,0.600)" stroke-width="2.75"/>
<path d="M412.5,333.4 C386.4,291.7 332.8,561.2 367.8,500.7" fill="none" stroke="rgba(110,103,178,0.600)" stroke-width="2.75"/>
<path d="M409.2,284.4 C375.7,201.6 453.9,416.5 500.0,378.1" fill="none" stroke="rgba(85,114,171,0.600)" stroke-width="2.75"/>
<path d="M184.3,214.5L185.0,210.4L187.0,206.6L190.1,203.9L193.9,202.6L247.7,195.5L251.3,195.9L254.4,197.7L256.4,200.8L257.2,204.7L257.4,220.2L256.8,224.2L254.8,227.8L251.8,230.4L248.3,231.7L194.9,239.5L191.2,239.3L187.9,237.5L185.7,234.4L184.8,230.5Z" fill="rgba(106,93,177,0.850)" stroke="rgba(176,153,237,0.335)" stroke-width="0.9"/>
<path d="M245.4,331.5L246.0,327.8L247.9,324.4L250.7,321.9L254.0,320.5L286.6,314.5L289.8,314.6L292.6,316.1L294.4,318.8L295.1,322.2L295.1,322.2L294.4,325.8L292.6,329.1L289.9,331.6L286.7,333.0L254.3,339.2L250.9,339.1L248.1,337.7L246.2,335.0L245.4,331.5Z" fill="rgba(83,107,180,0.892)" stroke="rgba(153,167,240,0.412)" stroke-width="0.9"/>
<path d="M391.1,240.3L391.8,236.6L393.7,233.2L396.3,230.7L399.5,229.5L458.1,220.4L461.0,220.6L463.4,222.3L465.0,225.0L465.4,228.5L464.9,242.6L464.2,246.2L462.4,249.4L459.9,251.8L457.0,253.0L398.7,262.9L395.7,262.7L393.1,261.2L391.4,258.4L390.9,254.9Z" fill="rgba(80,108,181,0.900)" stroke="rgba(150,168,241,0.426)" stroke-width="0.9"/>
<path d="M394.8,230.5L395.5,226.7L397.3,223.3L400.0,220.9L403.1,219.7L434.1,215.0L437.0,215.2L439.5,216.9L441.1,219.7L441.6,223.2L441.5,227.7L440.7,231.4L439.0,234.6L436.4,237.1L433.4,238.3L402.6,243.3L399.5,243.0L396.9,241.4L395.2,238.6L394.7,235.1Z" fill="rgba(115,87,176,0.867)" stroke="rgba(185,147,236,0.365)" stroke-width="0.9"/>
<path d="M360.0,180.9L360.7,177.0L362.6,173.6L365.4,171.0L368.6,169.9L412.4,164.3L415.5,164.7L418.0,166.5L419.7,169.4L420.2,173.1L419.9,185.2L419.2,189.0L417.4,192.4L414.7,194.8L411.6,196.0L368.2,202.1L365.0,201.8L362.2,200.1L360.5,197.1L359.9,193.4Z" fill="rgba(58,121,183,0.820)" stroke="rgba(128,181,243,0.281)" stroke-width="0.9"/>
<path d="M477.7,284.4L478.5,280.9L480.2,277.7L482.7,275.3L485.5,274.1L510.5,269.6L513.3,269.7L515.5,271.2L516.9,273.8L517.3,277.0L516.7,287.7L516.0,291.1L514.3,294.3L511.9,296.6L509.2,297.8L484.3,302.7L481.5,302.6L479.2,301.1L477.7,298.6L477.3,295.3Z" fill="rgba(59,121,183,0.798)" stroke="rgba(129,181,243,0.241)" stroke-width="0.9"/>
<path d="M368.1,287.5L368.8,283.8L370.6,280.4L373.3,277.9L376.5,276.6L441.6,265.2L444.5,265.4L447.0,267.0L448.5,269.6L449.0,273.0L448.7,281.4L448.0,284.9L446.2,288.2L443.7,290.6L440.8,291.8L376.0,304.0L372.9,303.8L370.3,302.3L368.6,299.6L368.0,296.2Z" fill="rgba(114,88,176,0.819)" stroke="rgba(184,148,236,0.279)" stroke-width="0.9"/>
<path d="M346.8,501.9L347.4,498.5L349.2,495.3L351.8,492.7L354.8,491.3L381.0,484.2L384.0,484.1L386.4,485.2L388.0,487.5L388.6,490.5L388.4,499.4L387.7,502.8L386.0,505.9L383.5,508.4L380.6,509.9L354.5,517.2L351.5,517.4L349.0,516.3L347.3,514.0L346.7,511.0Z" fill="rgba(106,92,177,0.865)" stroke="rgba(176,152,237,0.363)" stroke-width="0.9"/>
<circle cx="429.1" cy="364.7" r="6.15" fill="rgba(78,109,181,0.899)"/>
<path d="M312.8,409.6L313.5,405.9L315.3,402.6L318.0,400.0L321.2,398.6L363.1,389.2L366.2,389.1L368.7,390.5L370.4,393.0L371.0,396.3L370.7,415.2L370.1,418.7L368.3,422.0L365.7,424.5L362.6,425.9L321.1,435.9L318.0,436.0L315.3,434.7L313.5,432.2L312.8,428.9Z" fill="rgba(75,111,181,0.893)" stroke="rgba(145,171,241,0.413)" stroke-width="0.9"/>
<path d="M468.5,378.9L469.2,375.6L470.8,372.4L473.3,370.0L476.1,368.8L524.7,357.7L527.3,357.7L529.5,359.0L530.8,361.4L531.2,364.5L530.5,377.2L529.8,380.5L528.1,383.5L525.8,385.9L523.2,387.1L474.8,398.8L472.1,398.8L469.8,397.5L468.4,395.2L467.9,392.1Z" fill="rgba(61,119,183,0.851)" stroke="rgba(131,179,243,0.338)" stroke-width="0.9"/>
<path d="M212.5,319.9L213.1,315.9L215.0,312.3L218.0,309.6L221.6,308.2L267.7,300.0L271.2,300.2L274.1,301.8L276.1,304.6L276.8,308.2L276.9,317.9L276.2,321.8L274.3,325.3L271.5,327.9L268.1,329.3L222.3,338.0L218.7,337.9L215.6,336.3L213.5,333.5L212.7,329.8Z" fill="rgba(65,117,183,0.809)" stroke="rgba(135,177,243,0.260)" stroke-width="0.9"/>
<path d="M372.9,332.5L373.6,328.8L375.4,325.5L378.0,323.0L381.1,321.7L443.9,309.4L446.8,309.5L449.2,310.9L450.7,313.5L451.2,316.8L450.6,334.4L449.9,337.8L448.1,341.0L445.6,343.5L442.7,344.7L380.5,358.0L377.4,357.9L374.9,356.5L373.2,353.9L372.6,350.6Z" fill="rgba(69,115,182,0.801)" stroke="rgba(139,175,242,0.245)" stroke-width="0.9"/>
<path d="M452.8,423.2L453.5,419.8L455.2,416.7L457.6,414.3L460.4,413.0L489.7,405.8L492.4,405.8L494.6,407.0L496.0,409.3L496.3,412.3L496.0,419.5L495.3,422.8L493.7,425.8L491.3,428.2L488.6,429.5L459.5,437.0L456.7,437.1L454.5,435.9L453.0,433.6L452.5,430.5Z" fill="rgba(68,115,182,0.833)" stroke="rgba(138,175,242,0.303)" stroke-width="0.9"/>
<path d="M432.1,234.7L432.8,231.0L434.6,227.7L437.2,225.3L440.2,224.1L473.6,218.9L476.5,219.1L478.9,220.7L480.4,223.5L480.8,226.9L480.5,233.6L479.8,237.2L478.0,240.4L475.5,242.8L472.6,244.0L439.4,249.6L436.4,249.3L434.0,247.8L432.4,245.0L431.9,241.6Z" fill="rgba(89,102,179,0.879)" stroke="rgba(159,162,239,0.388)" stroke-width="0.9"/>
<path d="M439.3,482.2L439.9,479.1L441.5,476.1L443.8,473.8L446.5,472.5L470.7,465.9L473.2,465.8L475.3,466.9L476.7,469.0L477.1,471.8L477.1,471.8L476.4,474.9L474.9,477.8L472.6,480.1L470.0,481.4L445.9,488.1L443.3,488.3L441.1,487.2L439.7,485.1L439.3,482.2Z" fill="rgba(110,90,177,0.902)" stroke="rgba(180,150,237,0.430)" stroke-width="0.9"/>
</svg>